<?xml version="1.0" standalone="no"?>
<!DOCTYPE svg PUBLIC "-//W3C//DTD SVG 20010904//EN"
 "http://www.w3.org/TR/2001/REC-SVG-20010904/DTD/svg10.dtd">
<svg version="1.0" xmlns="http://www.w3.org/2000/svg"
 width="565.000000pt" height="153.000000pt" viewBox="0 0 565.000000 153.000000"
 preserveAspectRatio="xMidYMid meet">

<g transform="translate(0.000000,153.000000) scale(0.100000,-0.100000)"
fill="#000000" stroke="none">
<path d="M2073 1513 c92 -2 242 -2 335 0 92 1 16 3 -168 3 -184 0 -260 -2
-167 -3z"/>
<path d="M2607 1490 c17 -10 37 -29 44 -42 11 -21 10 -21 -17 4 -40 37 -67 45
-160 47 l-81 2 -7 -53 c-5 -37 -4 -54 5 -57 25 -8 91 -76 112 -115 18 -33 22
-58 22 -131 0 -102 -15 -145 -72 -201 -57 -57 -108 -78 -193 -78 -64 -1 -82 3
-125 27 l-49 28 -48 -26 c-90 -49 -207 -42 -288 16 -22 16 -63 34 -89 39 -27
5 -75 18 -107 30 -32 11 -59 20 -61 20 -1 0 -4 91 -6 203 -2 136 -3 112 -2
-75 0 -264 1 -278 21 -305 47 -64 39 -63 579 -63 471 0 491 1 523 20 18 11 41
34 52 52 19 31 20 51 20 306 0 197 -3 271 -11 266 -8 -4 -9 0 -4 15 5 16 -2
30 -28 56 -19 19 -41 35 -48 35 -8 0 0 -9 18 -20z m-535 -710 l503 -5 -488 -3
c-524 -2 -535 -1 -571 49 -28 40 -18 41 18 1 l34 -37 504 -5z m533 10 c-3 -5
-12 -10 -18 -10 -7 0 -6 4 3 10 19 12 23 12 15 0z"/>
<path d="M1832 1416 c-130 -42 -198 -145 -190 -284 4 -70 9 -84 41 -133 20
-30 52 -64 71 -77 37 -25 115 -52 151 -52 42 0 122 30 166 62 l44 32 -29 6
c-49 9 -44 30 7 30 31 0 47 5 51 15 4 12 -6 15 -58 15 -48 0 -65 4 -70 15 -4
13 8 15 74 15 53 0 80 4 80 11 0 8 4 8 13 1 12 -10 155 -16 144 -6 -2 3 -33 5
-68 5 -73 1 -89 10 -89 51 0 39 -16 28 -24 -17 -5 -23 -13 -35 -23 -35 -13 0
-14 7 -9 38 3 20 6 45 6 55 0 12 8 17 31 17 17 0 28 4 24 10 -3 6 -39 10 -80
10 -67 0 -74 -2 -72 -20 1 -13 5 -16 11 -10 6 6 23 10 38 10 21 0 29 -6 34
-26 8 -29 -1 -41 -36 -47 -24 -4 -24 -4 3 -6 37 -2 37 -31 -1 -31 -15 0 -33 5
-39 11 -8 8 -13 8 -17 0 -4 -6 -16 -11 -27 -11 -14 0 -19 7 -19 28 0 54 13
102 26 102 8 0 14 7 14 15 0 12 15 15 75 15 60 0 75 3 75 15 0 12 -14 15 -66
15 -48 0 -65 3 -62 13 3 6 25 13 51 15 35 2 45 6 40 18 -3 7 -17 14 -31 14
-20 0 -23 3 -14 12 21 21 13 34 -37 61 -61 33 -148 43 -209 23z m-102 -236 c0
-11 4 -20 9 -20 5 0 11 9 14 20 3 13 14 20 29 20 24 0 24 0 14 -65 -8 -53 -13
-65 -28 -65 -15 0 -17 6 -13 28 l5 27 -11 -27 c-13 -34 -38 -37 -40 -5 l-2 22
-4 -22 c-2 -13 -11 -23 -20 -23 -15 0 -15 11 3 103 7 33 44 39 44 7z m155 -11
c4 -6 4 -30 0 -55 -6 -42 -8 -44 -41 -44 -57 0 -59 56 -3 71 23 7 23 7 -3 8
-27 1 -35 10 -21 24 10 11 61 8 68 -4z m85 0 c0 -6 -9 -13 -20 -16 -18 -5 -19
-7 -4 -17 9 -7 14 -22 12 -37 -2 -19 -10 -25 -35 -27 -25 -2 -33 1 -33 12 0
10 9 16 22 16 20 0 20 1 5 18 -18 19 -22 44 -10 55 11 11 63 8 63 -4z"/>
<path d="M1835 1110 c-3 -5 -1 -10 4 -10 6 0 11 5 11 10 0 6 -2 10 -4 10 -3 0
-8 -4 -11 -10z"/>
<path d="M4150 1205 l0 -195 -35 0 c-27 0 -35 -4 -35 -18 0 -40 -15 -42 -262
-42 -235 0 -238 0 -238 21 0 15 -4 19 -16 15 -9 -3 -18 -6 -20 -6 -2 0 -4 -6
-4 -14 0 -12 -26 -15 -145 -15 l-145 -1 0 30 0 30 -140 0 -140 0 -3 188 c-2
154 -3 142 -4 -73 0 -143 3 -249 7 -235 l8 25 1 -27 c1 -39 48 -87 96 -98 56
-13 930 -13 977 0 44 12 88 61 89 98 l1 27 8 -25 c4 -14 8 93 9 243 1 147 -1
267 -4 267 -3 0 -5 -88 -5 -195z"/>
<path d="M3108 1323 c12 -2 32 -2 45 0 12 2 2 4 -23 4 -25 0 -35 -2 -22 -4z"/>
<path d="M3203 1323 c15 -2 37 -2 50 0 12 2 0 4 -28 4 -27 0 -38 -2 -22 -4z"/>
<path d="M3433 1323 c75 -2 199 -2 275 0 75 1 13 3 -138 3 -151 0 -213 -2
-137 -3z"/>
<path d="M3868 1323 c12 -2 32 -2 45 0 12 2 2 4 -23 4 -25 0 -35 -2 -22 -4z"/>
<path d="M3958 1323 c12 -2 32 -2 45 0 12 2 2 4 -23 4 -25 0 -35 -2 -22 -4z"/>
<path d="M674 1296 c-65 -29 -84 -98 -39 -140 14 -13 39 -29 55 -36 34 -14 44
-34 25 -50 -17 -14 -38 -15 -92 -6 l-43 8 0 -35 c0 -39 14 -47 90 -47 135 1
199 113 100 177 -70 45 -76 50 -64 63 14 14 49 17 86 7 24 -6 27 -4 33 24 5
22 3 34 -6 40 -21 13 -110 10 -145 -5z"/>
<path d="M4550 1230 l0 -80 39 0 c50 0 80 25 87 72 9 51 -28 88 -86 88 l-40 0
0 -80z m86 25 c17 -26 -2 -69 -34 -73 -20 -3 -22 1 -22 48 0 47 2 51 21 48 12
-2 28 -12 35 -23z"/>
<path d="M4690 1230 c0 -64 3 -80 15 -80 12 0 15 16 15 80 0 64 -3 80 -15 80
-12 0 -15 -16 -15 -80z"/>
<path d="M4756 1294 c-9 -8 -16 -21 -16 -28 0 -15 27 -40 53 -49 9 -4 17 -11
17 -17 0 -17 -29 -23 -45 -10 -12 10 -16 9 -21 -5 -8 -20 11 -35 47 -35 33 0
49 17 49 52 0 20 -8 31 -30 43 -36 19 -39 35 -6 35 30 0 42 15 20 24 -27 10
-52 7 -68 -10z"/>
<path d="M4885 1286 c-52 -52 -13 -141 58 -134 21 2 33 9 35 21 3 15 -1 17
-23 11 -29 -7 -65 18 -65 46 0 27 36 53 65 48 20 -4 25 -2 23 11 -5 28 -64 26
-93 -3z"/>
<path d="M5152 1302 c2 -4 16 -40 32 -80 16 -39 34 -72 40 -72 7 0 19 19 28
43 9 23 23 59 32 80 16 35 15 37 -3 37 -13 0 -24 -14 -35 -45 -10 -25 -21 -43
-25 -41 -4 3 -13 23 -21 45 -9 29 -19 41 -32 41 -11 0 -18 -3 -16 -8z"/>
<path d="M5310 1230 l0 -80 45 0 c33 0 45 4 45 15 0 10 -10 15 -30 15 -23 0
-30 4 -30 20 0 16 7 20 30 20 20 0 30 5 30 15 0 10 -10 15 -30 15 -20 0 -30 5
-30 15 0 10 10 15 30 15 20 0 30 5 30 15 0 11 -12 15 -45 15 l-45 0 0 -80z"/>
<path d="M5420 1230 c0 -63 3 -80 14 -80 9 0 16 12 18 33 l3 32 18 -32 c11
-21 25 -33 38 -33 l21 0 -21 34 c-19 29 -19 35 -6 46 18 15 20 51 3 68 -7 7
-29 12 -50 12 l-38 0 0 -80z m65 30 c0 -8 -8 -16 -17 -18 -13 -2 -18 3 -18 18
0 15 5 20 18 18 9 -2 17 -10 17 -18z"/>
<path d="M334 1205 c-20 -52 -40 -95 -44 -95 -3 0 -12 15 -18 34 -12 34 -89
113 -99 102 -3 -3 10 -62 28 -131 l34 -126 48 3 48 3 65 148 c35 82 64 151 64
153 0 2 -20 4 -44 4 l-44 0 -38 -95z"/>
<path d="M471 1163 c-12 -76 -25 -146 -27 -155 -5 -15 2 -18 40 -18 25 0 46 3
46 8 0 4 11 72 25 152 14 80 25 146 25 148 0 1 -20 2 -43 2 l-44 0 -22 -137z"/>
<path d="M941 1286 c-13 -15 -131 -275 -131 -287 0 -5 20 -9 45 -9 39 0 45 3
51 25 6 23 11 25 59 25 48 0 53 -2 59 -25 5 -21 12 -25 46 -25 22 0 40 2 40 4
0 6 -60 268 -66 289 -7 21 -86 24 -103 3z m55 -143 l7 -43 -33 0 c-21 0 -30 4
-26 13 2 6 10 29 17 50 15 44 25 38 35 -20z"/>
<path d="M3718 1273 c6 -2 18 -2 25 0 6 3 1 5 -13 5 -14 0 -19 -2 -12 -5z"/>
<path d="M5632 1055 c-2 -168 -4 -194 -22 -222 -36 -59 -23 -58 -555 -63
l-490 -5 486 -3 486 -2 33 23 c66 44 71 62 67 273 l-2 189 -3 -190z"/>
<path d="M3543 1223 c9 -2 23 -2 30 0 6 3 -1 5 -18 5 -16 0 -22 -2 -12 -5z"/>
<path d="M3699 1187 c5 -5 21 -7 37 -5 27 3 26 4 -8 9 -22 3 -34 1 -29 -4z"/>
<path d="M3413 1183 c15 -2 37 -2 50 0 12 2 0 4 -28 4 -27 0 -38 -2 -22 -4z"/>
<path d="M3958 1183 c6 -2 18 -2 25 0 6 3 1 5 -13 5 -14 0 -19 -2 -12 -5z"/>
<path d="M2215 1170 c-4 -6 5 -10 20 -10 15 0 24 4 20 10 -3 6 -12 10 -20 10
-8 0 -17 -4 -20 -10z"/>
<path d="M2055 1150 c-3 -5 1 -10 10 -10 9 0 13 5 10 10 -3 6 -8 10 -10 10 -2
0 -7 -4 -10 -10z"/>
<path d="M2390 1145 c-7 -9 -10 -18 -7 -21 3 -3 10 4 17 15 13 25 8 27 -10 6z"/>
<path d="M2006 1132 c-4 -13 -5 -26 -2 -29 10 -11 18 4 14 29 l-4 23 -8 -23z"/>
<path d="M2273 1143 c9 -2 23 -2 30 0 6 3 -1 5 -18 5 -16 0 -22 -2 -12 -5z"/>
<path d="M3325 1123 c43 -2 84 -8 91 -14 8 -7 14 -7 19 1 4 6 115 11 323 12
l317 3 -314 2 c-211 2 -318 0 -326 -7 -9 -8 -15 -8 -20 0 -4 6 -40 9 -88 8
l-82 -2 80 -3z"/>
<path d="M3323 1083 c9 -2 25 -2 35 0 9 3 1 5 -18 5 -19 0 -27 -2 -17 -5z"/>
<path d="M3454 1068 l-19 -23 23 19 c21 18 27 26 19 26 -2 0 -12 -10 -23 -22z"/>
<path d="M3511 1086 c2 -2 18 -6 34 -10 22 -5 26 -4 15 4 -14 9 -59 15 -49 6z"/>
<path d="M3640 1086 c0 -2 11 -6 25 -8 13 -3 22 -1 19 3 -5 9 -44 13 -44 5z"/>
<path d="M3783 1083 c9 -2 25 -2 35 0 9 3 1 5 -18 5 -19 0 -27 -2 -17 -5z"/>
<path d="M4781 1049 c2 -31 3 -36 6 -15 l5 28 29 -28 29 -28 -1 45 c-2 31 -3
36 -6 15 l-5 -28 -29 28 -29 28 1 -45z"/>
<path d="M4870 1050 c0 -37 2 -40 28 -39 26 0 26 1 5 9 -13 5 -23 14 -23 19 0
5 10 12 23 14 l22 4 -22 2 c-13 0 -23 5 -23 10 0 5 10 12 23 14 19 4 18 4 -5
6 -26 1 -28 -2 -28 -39z"/>
<path d="M4937 1082 c6 -4 13 -23 16 -42 l4 -35 1 38 c2 47 17 47 39 1 17 -34
17 -34 26 -12 l8 23 13 -23 c12 -22 12 -22 29 13 22 46 21 56 -2 26 l-19 -24
-7 23 -7 23 -13 -23 -12 -23 -12 21 c-8 16 -21 22 -44 22 -18 0 -27 -4 -20 -8z"/>
<path d="M5101 1076 c-16 -19 -11 -46 12 -60 25 -16 52 4 52 40 0 24 -5 30
-26 32 -14 2 -31 -4 -38 -12z m56 -12 c3 -8 -2 -23 -11 -32 -14 -15 -18 -15
-31 -1 -9 9 -13 23 -9 32 8 21 43 22 51 1z"/>
<path d="M5191 1048 c0 -33 2 -38 9 -23 7 18 8 19 15 3 4 -10 12 -18 18 -18 8
0 8 3 0 11 -7 7 -9 25 -6 40 5 25 2 29 -16 29 -18 0 -21 -6 -20 -42z m29 22
c0 -5 -4 -10 -10 -10 -5 0 -10 5 -10 10 0 6 5 10 10 10 6 0 10 -4 10 -10z"/>
<path d="M5251 1050 c0 -29 3 -39 8 -27 6 17 8 17 20 3 7 -9 18 -16 24 -16 5
0 3 8 -6 18 -22 24 -21 38 1 51 9 6 12 11 7 11 -6 0 -17 -6 -23 -12 -10 -10
-15 -10 -22 2 -7 11 -10 2 -9 -30z"/>
<path d="M2355 1070 c-16 -7 -17 -9 -3 -9 9 -1 20 4 23 9 7 11 7 11 -20 0z"/>
<path d="M2409 1067 c5 -5 26 -7 47 -5 l39 3 -47 5 c-26 3 -43 1 -39 -3z"/>
<path d="M3888 1073 c12 -2 30 -2 40 0 9 3 -1 5 -23 4 -22 0 -30 -2 -17 -4z"/>
<path d="M3998 1073 c12 -2 30 -2 40 0 9 3 -1 5 -23 4 -22 0 -30 -2 -17 -4z"/>
<path d="M3859 1037 c5 -5 21 -7 37 -5 27 3 26 4 -8 9 -22 3 -34 1 -29 -4z"/>
<path d="M3969 1037 c5 -5 21 -7 37 -5 27 3 26 4 -8 9 -22 3 -34 1 -29 -4z"/>
<path d="M3313 1033 c9 -2 25 -2 35 0 9 3 1 5 -18 5 -19 0 -27 -2 -17 -5z"/>
<path d="M3540 1030 l-35 -7 37 -2 c20 0 40 4 43 9 7 11 7 11 -45 0z"/>
<path d="M3778 1033 c12 -2 30 -2 40 0 9 3 -1 5 -23 4 -22 0 -30 -2 -17 -4z"/>
<path d="M3396 1009 c-21 -20 -96 -28 -96 -9 0 6 -4 10 -10 10 -5 0 -10 -7
-10 -15 0 -25 102 -21 125 5 l18 20 24 -22 c12 -12 25 -19 29 -16 4 5 -49 49
-58 47 -1 0 -12 -9 -22 -20z"/>
<path d="M3648 1023 c12 -2 30 -2 40 0 9 3 -1 5 -23 4 -22 0 -30 -2 -17 -4z"/>
<path d="M3490 995 c0 -8 5 -15 10 -15 6 0 10 7 10 15 0 8 -4 15 -10 15 -5 0
-10 -7 -10 -15z"/>
<path d="M3610 995 c0 -8 5 -15 10 -15 6 0 10 7 10 15 0 8 -4 15 -10 15 -5 0
-10 -7 -10 -15z"/>
<path d="M3700 995 c0 -8 5 -15 10 -15 6 0 10 7 10 15 0 8 -4 15 -10 15 -5 0
-10 -7 -10 -15z"/>
<path d="M3740 995 c0 -11 11 -15 48 -13 43 1 44 2 10 5 -21 2 -38 8 -38 14 0
5 -4 9 -10 9 -5 0 -10 -7 -10 -15z"/>
<path d="M3888 1003 c-21 -2 -38 -9 -38 -14 0 -15 83 -6 88 9 2 6 0 11 -5 10
-4 -1 -25 -3 -45 -5z"/>
<path d="M3998 1003 c-21 -2 -38 -9 -38 -14 0 -15 83 -6 88 9 2 6 0 11 -5 10
-4 -1 -25 -3 -45 -5z"/>
<path d="M2970 852 c0 -18 64 -82 82 -82 7 0 -1 9 -19 20 -17 10 -39 32 -47
47 -8 15 -15 22 -16 15z"/>
<path d="M4132 835 c-6 -14 -26 -34 -44 -45 -18 -11 -28 -20 -22 -20 26 0 95
73 81 86 -2 2 -9 -7 -15 -21z"/>
<path d="M3313 763 c136 -2 358 -2 495 0 136 1 24 2 -248 2 -272 0 -384 -1
-247 -2z"/>
</g>
</svg>
