<?xml version="1.0" standalone="no"?>
<!DOCTYPE svg PUBLIC "-//W3C//DTD SVG 20010904//EN"
 "http://www.w3.org/TR/2001/REC-SVG-20010904/DTD/svg10.dtd">
<svg version="1.0" xmlns="http://www.w3.org/2000/svg"
 width="3258.000000pt" height="3258.000000pt" viewBox="0 0 3258.000000 3258.000000"
 preserveAspectRatio="xMidYMid meet">

<g transform="translate(0.000000,3258.000000) scale(0.100000,-0.100000)"
fill="#000000" stroke="none">
<path d="M16280 26548 l0 -6013 -4987 -2266 c-2743 -1247 -4989 -2271 -4990
-2275 -2 -5 2244 -1337 4990 -2960 l4992 -2952 56 32 c31 17 2280 1345 4998
2951 3617 2138 4939 2924 4935 2935 -11 32 -9977 16560 -9985 16560 -5 0 -9
-2526 -9 -6012z"/>
<path d="M21298 11146 c-2731 -1613 -4977 -2940 -4992 -2949 l-26 -17 0 -4081
c0 -2463 4 -4079 9 -4077 11 4 9984 14048 9979 14053 -2 2 -2238 -1316 -4970
-2929z"/>
</g>
</svg>
