<?xml version="1.0" standalone="no"?>
<!DOCTYPE svg PUBLIC "-//W3C//DTD SVG 20010904//EN"
 "http://www.w3.org/TR/2001/REC-SVG-20010904/DTD/svg10.dtd">
<svg version="1.0" xmlns="http://www.w3.org/2000/svg"
 width="512.000000pt" height="512.000000pt" viewBox="0 0 512.000000 512.000000"
 preserveAspectRatio="xMidYMid meet">

<g transform="translate(0.000000,512.000000) scale(0.100000,-0.100000)"
fill="#000000" stroke="none">
<path d="M2433 4641 c-95 -33 -187 -106 -258 -205 -23 -34 -225 -360 -447
-726 -223 -366 -669 -1097 -990 -1626 -322 -528 -599 -987 -616 -1020 -49 -97
-64 -164 -60 -262 2 -65 9 -99 26 -134 50 -100 156 -173 298 -203 103 -22
4234 -22 4337 0 143 30 243 100 294 204 25 50 28 66 28 156 -1 87 -5 110 -31
175 -17 43 -172 308 -359 615 -181 297 -639 1048 -1017 1669 -379 621 -707
1154 -731 1184 -119 156 -317 228 -474 173z m292 -1082 c23 -7 57 -28 81 -53
25 -24 46 -58 53 -81 15 -56 15 -1374 0 -1430 -15 -52 -82 -119 -134 -134 -52
-14 -288 -14 -340 0 -52 15 -119 82 -134 134 -15 55 -15 1374 0 1429 14 50 73
113 124 131 49 17 291 20 350 4z m-61 -2039 c72 -27 139 -88 173 -158 24 -49
28 -69 27 -137 -1 -131 -56 -220 -172 -277 -58 -29 -76 -33 -142 -32 -91 1
-153 27 -218 92 -140 139 -115 367 52 480 27 17 62 36 80 41 55 16 142 12 200
-9z"/>
</g>
</svg>
