<?xml version="1.0" standalone="no"?>
<!DOCTYPE svg PUBLIC "-//W3C//DTD SVG 20010904//EN"
 "http://www.w3.org/TR/2001/REC-SVG-20010904/DTD/svg10.dtd">
<svg version="1.0" xmlns="http://www.w3.org/2000/svg"
 width="225.000000pt" height="225.000000pt" viewBox="0 0 225.000000 225.000000"
 preserveAspectRatio="xMidYMid meet">

<g transform="translate(0.000000,225.000000) scale(0.100000,-0.100000)"
fill="#000000" stroke="none">
<path d="M1700 1826 c0 -2 8 -10 18 -17 15 -13 16 -12 3 4 -13 16 -21 21 -21
13z"/>
<path d="M1795 1730 c10 -11 20 -20 23 -20 3 0 -3 9 -13 20 -10 11 -20 20 -23
20 -3 0 3 -9 13 -20z"/>
<path d="M1610 1656 c0 -2 8 -10 18 -17 15 -13 16 -12 3 4 -13 16 -21 21 -21
13z"/>
<path d="M1920 1485 c-27 -29 -18 -29 -355 -6 -178 13 -700 13 -870 1 -71 -5
-170 -12 -220 -16 -49 -3 -117 -9 -150 -13 l-59 -6 -19 -62 -19 -63 -47 0
c-26 0 -55 -6 -65 -13 -18 -13 -16 -21 38 -158 31 -79 56 -156 56 -169 0 -14
-21 -90 -46 -169 -31 -98 -42 -146 -35 -155 7 -8 32 -10 88 -5 43 4 90 8 106
8 27 1 27 1 11 27 -10 14 -13 29 -8 33 5 5 54 6 109 4 l101 -5 34 -55 c45 -71
154 -172 225 -209 30 -16 55 -31 55 -34 0 -3 -22 -28 -50 -55 l-50 -49 -37 17
c-30 14 -34 14 -19 2 11 -8 54 -28 95 -44 340 -131 722 -51 974 204 35 36 80
88 98 115 l34 51 90 -6 c50 -4 97 -8 106 -11 9 -2 21 2 27 9 9 10 1 47 -33
153 -25 76 -45 153 -45 171 0 18 25 96 56 174 42 106 53 144 45 152 -7 7 -37
14 -68 17 l-57 5 -16 55 c-9 30 -25 72 -36 93 l-20 38 -24 -26z m27 -31 c-3
-3 -12 -4 -19 -1 -8 3 -5 6 6 6 11 1 17 -2 13 -5z m-927 -129 c49 -25 60 -60
60 -190 0 -84 -4 -124 -15 -145 -41 -79 -179 -79 -220 0 -21 41 -21 249 0 290
29 56 113 77 175 45z m336 -18 c26 -24 37 -43 41 -75 l6 -42 -40 0 c-35 0 -40
3 -48 33 -11 35 -45 48 -71 27 -18 -16 -20 -210 -2 -228 18 -18 56 -14 68 7
16 31 12 51 -10 51 -16 0 -20 7 -20 35 l0 35 61 0 61 0 -4 -76 c-3 -73 -5 -77
-41 -110 -29 -27 -45 -34 -77 -34 -23 0 -54 7 -70 15 -54 28 -60 47 -60 188 0
72 5 137 11 148 17 32 70 59 117 59 34 0 49 -6 78 -33z m-716 -142 l0 -165 70
0 70 0 0 -40 0 -40 -110 0 -110 0 0 205 0 205 40 0 40 0 0 -165z m1003 151
c58 -24 67 -49 67 -195 0 -124 -1 -131 -25 -160 -61 -72 -176 -58 -211 26 -20
47 -19 235 1 274 32 60 102 83 168 55z m55 -571 c8 -7 -86 -111 -136 -150
-154 -121 -349 -179 -526 -155 -102 14 -206 49 -285 95 -70 41 -177 138 -204
184 l-18 31 44 0 c27 0 49 -6 57 -15 10 -13 53 -15 269 -15 l256 0 -90 -90
c-49 -50 -99 -91 -110 -91 -48 -3 87 -27 156 -28 161 -2 316 60 438 175 71 67
79 71 111 67 19 -3 36 -7 38 -8z"/>
<path d="M922 1248 c-16 -16 -16 -210 0 -226 7 -7 21 -12 33 -12 38 0 45 19
45 125 0 106 -7 125 -45 125 -12 0 -26 -5 -33 -12z"/>
<path d="M1560 1240 c-16 -10 -28 -158 -16 -205 8 -33 40 -49 66 -35 18 10 20
21 20 118 0 109 -7 132 -39 132 -9 0 -23 -5 -31 -10z"/>
<path d="M510 466 c0 -2 8 -10 18 -17 15 -13 16 -12 3 4 -13 16 -21 21 -21 13z"/>
</g>
</svg>
