<?xml version="1.0" standalone="no"?>
<!DOCTYPE svg PUBLIC "-//W3C//DTD SVG 20010904//EN"
 "http://www.w3.org/TR/2001/REC-SVG-20010904/DTD/svg10.dtd">
<svg version="1.0" xmlns="http://www.w3.org/2000/svg"
 width="512.000000pt" height="512.000000pt" viewBox="0 0 512.000000 512.000000"
 preserveAspectRatio="xMidYMid meet">

<g transform="translate(0.000000,512.000000) scale(0.100000,-0.100000)"
fill="#000000" stroke="none">
<path d="M2350 4914 c-574 -52 -1052 -276 -1460 -684 -373 -373 -586 -792
-667 -1310 -25 -162 -25 -558 0 -720 81 -518 294 -937 667 -1310 373 -373 792
-586 1310 -667 162 -25 558 -25 720 0 518 81 937 294 1310 667 373 373 586
792 667 1310 13 87 17 174 17 360 0 186 -4 273 -17 360 -81 518 -294 937 -667
1310 -370 370 -793 586 -1300 665 -101 16 -480 28 -580 19z m1563 -1032 c-589
-1080 -1491 -2700 -1501 -2697 -19 7 -1283 917 -1279 921 2 2 260 -27 573 -66
313 -38 578 -70 590 -70 16 0 219 242 839 1000 450 550 820 1000 822 1000 2 0
-17 -40 -44 -88z"/>
</g>
</svg>
