<?xml version="1.0" standalone="no"?>
<!DOCTYPE svg PUBLIC "-//W3C//DTD SVG 20010904//EN"
 "http://www.w3.org/TR/2001/REC-SVG-20010904/DTD/svg10.dtd">
<svg version="1.0" xmlns="http://www.w3.org/2000/svg"
 width="495.000000pt" height="504.000000pt" viewBox="0 0 495.000000 504.000000"
 preserveAspectRatio="xMidYMid meet">

<g transform="translate(0.000000,504.000000) scale(0.100000,-0.100000)"
fill="#000000" stroke="none">
<path d="M2840 5004 c-47 -13 -138 -31 -203 -40 -110 -15 -128 -15 -252 1 -74
9 -171 25 -215 36 -91 21 -127 23 -165 9 -14 -5 -54 -14 -88 -20 -57 -9 -239
-78 -577 -220 -69 -29 -172 -69 -230 -90 -58 -21 -127 -46 -155 -56 -37 -14
-72 -41 -135 -104 -70 -71 -98 -110 -164 -225 -96 -171 -192 -322 -305 -480
-47 -65 -125 -177 -173 -248 -49 -71 -99 -143 -113 -159 -14 -17 -32 -43 -40
-58 l-14 -27 142 -89 c78 -48 169 -113 202 -144 33 -31 87 -78 120 -105 93
-76 245 -226 271 -267 13 -21 30 -38 37 -38 7 0 35 14 61 31 27 16 50 28 52
26 6 -6 21 -740 35 -1677 7 -426 15 -835 18 -907 l6 -132 275 -1 c498 -2 1309
8 1655 19 187 7 482 11 655 10 422 -3 409 -3 417 5 4 4 9 522 10 1150 3 1020
11 1477 27 1493 3 3 17 -4 31 -16 40 -31 39 -31 343 231 51 44 114 97 141 117
90 67 296 224 363 278 l68 53 -30 48 c-16 26 -71 99 -121 162 -180 224 -479
654 -610 876 -69 116 -136 187 -213 223 -86 41 -929 333 -1026 355 -8 2 -53
-7 -100 -20z m-656 -1539 c31 -70 53 -131 50 -138 -4 -7 -3 -9 1 -4 8 6 85
-143 85 -164 0 -5 -25 -9 -55 -9 -50 0 -55 2 -61 25 -6 24 -9 25 -95 25 -86 0
-90 -1 -99 -25 -9 -23 -15 -25 -65 -25 -31 0 -55 4 -55 10 0 6 17 45 38 88 21
42 65 137 97 210 79 176 82 176 159 7z m442 106 c54 -15 107 -66 120 -115 6
-25 5 -26 -40 -26 -50 0 -90 25 -83 51 2 8 2 11 0 7 -3 -5 -28 -8 -57 -8 -71
0 -104 -33 -115 -114 -4 -31 -6 -54 -4 -52 2 2 19 -12 37 -30 28 -28 41 -34
78 -34 32 0 51 6 68 23 l25 22 -48 3 -47 3 0 45 0 44 100 0 100 0 0 -44 c0
-135 -113 -226 -245 -197 -114 26 -170 97 -170 216 0 59 5 78 28 118 25 42 37
52 60 48 4 0 6 5 5 11 -4 15 88 48 122 44 14 -2 43 -8 66 -15z m-1140 -108
l38 -118 35 113 c32 106 36 112 61 112 25 0 29 -6 62 -112 l35 -113 37 118 38
117 54 0 c30 0 54 -3 54 -6 0 -5 -131 -380 -145 -417 -6 -13 -16 -17 -38 -15
-29 3 -32 7 -60 101 -17 53 -33 97 -37 97 -4 0 -20 -44 -37 -97 -29 -95 -30
-98 -61 -101 -27 -3 -32 1 -39 25 -4 15 -7 30 -8 33 0 3 -10 30 -22 60 -40
100 -113 301 -113 311 0 5 24 9 54 9 l55 0 37 -117z m1478 27 c44 -49 83 -90
87 -90 5 0 25 19 46 42 107 119 127 138 144 138 18 0 19 -12 19 -215 l0 -215
-55 0 -55 0 0 90 c0 50 -2 90 -5 90 -3 0 -21 -18 -41 -40 -20 -22 -41 -40 -47
-40 -6 0 -31 19 -54 42 l-43 42 -1 -69 c-1 -39 0 -80 1 -92 1 -22 -2 -23 -59
-23 l-61 0 1 95 c1 76 4 97 18 106 14 9 14 10 0 6 -14 -5 -16 10 -17 109 -2
113 -1 114 21 114 16 0 45 -26 101 -90z m576 40 c0 -47 -2 -50 -25 -50 l-25 0
0 -114 0 -115 28 -3 c25 -3 27 -7 30 -50 l3 -48 -111 0 -112 0 4 48 c3 43 6
47 31 50 l27 3 0 115 0 114 -25 0 c-23 0 -25 3 -25 50 l0 50 100 0 100 0 0
-50z"/>
<path d="M2097 3507 c-3 -8 1 -14 8 -14 7 0 11 6 8 14 -3 7 -6 13 -8 13 -2 0
-5 -6 -8 -13z"/>
<path d="M2072 3451 c-6 -17 -9 -31 -6 -31 7 0 25 52 20 57 -2 2 -8 -10 -14
-26z"/>
<path d="M2046 3393 c-6 -14 -5 -15 5 -6 7 7 10 15 7 18 -3 3 -9 -2 -12 -12z"/>
<path d="M2083 3375 c0 -16 -4 -40 -8 -52 -7 -21 -4 -23 34 -23 39 0 40 1 31
26 -17 44 -31 65 -40 59 -4 -3 -10 1 -13 7 -2 7 -4 0 -4 -17z"/>
<path d="M2016 3334 c-19 -41 -15 -59 5 -22 13 22 22 58 16 58 -2 0 -11 -16
-21 -36z"/>
<path d="M2190 3321 c0 -6 4 -13 10 -16 6 -3 7 1 4 9 -7 18 -14 21 -14 7z"/>
<path d="M1971 3234 c-6 -15 -10 -29 -7 -31 2 -2 7 5 11 16 3 12 11 18 17 15
7 -4 8 -2 4 4 -5 8 28 12 116 15 l123 3 -126 2 -126 2 -12 -26z"/>
<path d="M2478 3537 c7 -8 8 -18 4 -22 -4 -5 -1 -5 6 -1 17 10 15 23 -4 30
-13 5 -14 4 -6 -7z"/>
<path d="M2605 3530 c-3 -5 1 -10 9 -10 9 0 16 5 16 10 0 6 -4 10 -9 10 -6 0
-13 -4 -16 -10z"/>
<path d="M2416 3464 c-9 -24 -2 -26 12 -4 7 11 8 20 3 20 -5 0 -12 -7 -15 -16z"/>
<path d="M2392 3360 c-2 -50 11 -83 21 -56 4 9 2 16 -3 16 -5 0 -11 19 -13 43
l-4 42 -1 -45z"/>
<path d="M2659 3233 c-13 -16 -12 -17 4 -4 16 13 21 21 13 21 -2 0 -10 -8 -17
-17z"/>
<path d="M2465 3220 c3 -4 14 -10 25 -13 11 -3 18 -2 15 3 -3 4 -14 10 -25 13
-11 3 -18 2 -15 -3z"/>
<path d="M2615 3210 c-3 -6 1 -7 9 -4 18 7 21 14 7 14 -6 0 -13 -4 -16 -10z"/>
<path d="M2543 3193 c9 -2 25 -2 35 0 9 3 1 5 -18 5 -19 0 -27 -2 -17 -5z"/>
<path d="M1601 3454 c0 -11 3 -14 6 -6 3 7 2 16 -1 19 -3 4 -6 -2 -5 -13z"/>
<path d="M1450 3370 c-8 -5 -11 -12 -7 -16 4 -4 13 -2 19 4 15 15 7 24 -12 12z"/>
<path d="M1542 3290 c-7 -11 -8 -20 -3 -20 9 0 24 30 18 36 -1 2 -8 -6 -15
-16z"/>
<path d="M1510 3231 c0 -6 4 -13 10 -16 6 -3 7 1 4 9 -7 18 -14 21 -14 7z"/>
<path d="M1717 3233 c-4 -3 -7 -11 -7 -17 0 -6 5 -5 12 2 6 6 9 14 7 17 -3 3
-9 2 -12 -2z"/>
<path d="M3150 3423 l-45 -48 47 44 47 45 4 -135 3 -134 2 138 c1 75 -2 137
-6 137 -4 0 -28 -21 -52 -47z"/>
<path d="M2984 3383 c60 -62 86 -79 86 -56 0 4 -3 3 -7 -1 -4 -3 -39 24 -77
61 l-71 68 69 -72z"/>
<path d="M3428 3193 c6 -2 18 -2 25 0 6 3 1 5 -13 5 -14 0 -19 -2 -12 -5z"/>
</g>
</svg>
